<svg width="800" height="622" viewBox="0 0 800 622" fill="none" xmlns="http://www.w3.org/2000/svg">
<path d="M799.781 138.971C799.631 138.239 799.406 137.534 799.117 136.863L743.533 7.16828C741.816 3.16212 737.877 0.564941 733.519 0.564941H66.4807C62.1231 0.564941 58.1837 3.16212 56.4668 7.16828L0.883156 136.866C0.595549 137.535 0.370403 138.238 0.220789 138.969C0.0697228 139.701 0 140.436 0 141.167V610.541C0 616.558 4.87769 621.435 10.8942 621.435H789.106C795.124 621.435 800 616.558 800 610.541V141.167C800.001 140.436 799.93 139.701 799.781 138.971ZM778.212 599.647H21.7884V152.055H640.875C646.893 152.055 651.769 147.178 651.769 141.161C651.769 135.145 646.893 130.267 640.875 130.267H27.4156L73.6636 22.3533H726.335L772.584 130.267H733.518C727.5 130.267 722.624 135.145 722.624 141.161C722.624 147.178 727.5 152.055 733.518 152.055H778.212V599.647ZM742.402 111.449C744.415 108.383 744.75 104.507 743.292 101.14L717.46 41.4835C715.734 37.4977 711.805 34.918 707.462 34.918H92.5382C88.195 34.918 84.2673 37.4977 82.5417 41.4835L56.7094 101.14C55.251 104.507 55.5865 108.381 57.5998 111.449C59.613 114.517 63.0367 116.363 66.7059 116.363H733.296C736.965 116.363 740.387 114.515 742.402 111.449ZM83.2941 94.5746L99.6921 56.7064H700.308L716.706 94.5746H83.2941ZM233.24 426.728H103.538C97.5219 426.728 92.6442 431.606 92.6442 437.623V530.267C92.6442 536.283 97.5219 541.161 103.538 541.161H233.24C239.257 541.161 244.135 536.283 244.135 530.267V437.623C244.135 431.606 239.257 426.728 233.24 426.728ZM222.346 519.373H114.433V448.517H222.346V519.373ZM555.865 437.623V530.267C555.865 536.283 560.742 541.161 566.76 541.161H696.461C702.479 541.161 707.356 536.283 707.356 530.267V437.623C707.356 431.606 702.479 426.728 696.461 426.728H566.76C560.743 426.728 555.865 431.606 555.865 437.623ZM577.654 448.517H685.567V519.373H577.654V448.517ZM37.0577 175.401V270.863C37.0577 276.88 41.9354 281.757 47.9519 281.757H111.173V297.027H47.9519C41.9354 297.027 37.0577 301.904 37.0577 307.921V578.57C37.0577 584.587 41.9354 589.464 47.9519 589.464H752.048C758.066 589.464 762.942 584.587 762.942 578.57V307.921C762.942 301.904 758.066 297.027 752.048 297.027H688.828V281.757H752.048C758.066 281.757 762.942 276.88 762.942 270.863V175.401C762.942 169.384 758.066 164.507 752.048 164.507H47.9519C41.9354 164.507 37.0577 169.383 37.0577 175.401ZM741.154 318.815V567.676H58.8461V318.815H111.173V354.243C111.173 360.259 116.051 365.137 122.067 365.137H214.712C220.728 365.137 225.606 360.259 225.606 354.243V318.815H574.394V354.243C574.394 360.259 579.27 365.137 585.288 365.137H677.933C683.951 365.137 688.827 360.259 688.827 354.243V318.815H741.154ZM667.039 270.835C667.039 270.846 667.037 270.854 667.037 270.863C667.037 270.872 667.039 270.882 667.039 270.891V307.892C667.039 307.9 667.037 307.911 667.037 307.919C667.037 307.928 667.039 307.938 667.039 307.947V343.347H596.183V307.947C596.183 307.938 596.184 307.928 596.184 307.919C596.184 307.911 596.183 307.9 596.183 307.892V235.434H667.039V270.835ZM574.394 297.027H225.606V281.757H574.394V297.027ZM203.817 270.848C203.817 270.853 203.817 270.857 203.817 270.863C203.817 270.869 203.817 270.872 203.817 270.878V343.349H132.961V235.435H203.817V270.848ZM58.8461 186.295H741.154V259.969H688.828V224.541C688.828 218.524 683.952 213.647 677.934 213.647H585.29C579.272 213.647 574.396 218.524 574.396 224.541V259.969H225.607V224.541C225.607 218.524 220.729 213.647 214.713 213.647H122.069C116.052 213.647 111.175 218.524 111.175 224.541V259.969H58.8461V186.295ZM669.778 459.426H593.443C587.425 459.426 582.549 464.303 582.549 470.32V501.29C582.549 507.306 587.425 512.184 593.443 512.184H669.778C675.796 512.184 680.672 507.306 680.672 501.29V470.32C680.672 464.303 675.796 459.426 669.778 459.426ZM658.884 490.396H604.337V481.214H658.884V490.396ZM130.222 512.184H206.557C212.573 512.184 217.451 507.306 217.451 501.29V470.32C217.451 464.303 212.573 459.426 206.557 459.426H130.222C124.205 459.426 119.328 464.303 119.328 470.32V501.29C119.328 507.306 124.205 512.184 130.222 512.184ZM141.116 481.214H195.663V490.396H141.116V481.214ZM614.175 311.777H649.047C655.065 311.777 659.941 306.9 659.941 300.883V260.903C659.941 254.886 655.065 250.009 649.047 250.009H614.175C608.158 250.009 603.281 254.886 603.281 260.903V300.883C603.281 306.9 608.158 311.777 614.175 311.777ZM625.07 271.797H638.153V289.989H625.07V271.797ZM150.953 311.777H185.824C191.841 311.777 196.719 306.9 196.719 300.883V260.903C196.719 254.886 191.841 250.009 185.824 250.009H150.953C144.936 250.009 140.059 254.886 140.059 260.903V300.883C140.059 306.9 144.936 311.777 150.953 311.777ZM161.847 271.797H174.93V289.989H161.847V271.797Z" fill="#FFA500"/>
</svg>
