<svg width="800" height="800" viewBox="0 0 800 800" fill="none" xmlns="http://www.w3.org/2000/svg">
<path d="M146.639 93.8321C179.331 81.729 216.412 89.493 241.508 114.583C276.618 149.693 276.618 206.634 241.506 241.746C206.387 276.866 149.453 276.866 114.334 241.746C89.1383 216.551 81.4234 179.266 93.7344 146.485C96.8414 138.213 92.6539 128.988 84.3812 125.881C76.1086 122.774 66.8844 126.962 63.7773 135.234C47.0922 179.663 57.5523 230.22 91.7062 264.374C139.323 311.99 216.517 311.99 264.134 264.374C311.742 216.765 311.742 139.563 264.134 91.954C230.117 57.9461 179.838 47.4188 135.529 63.8227C127.242 66.8907 123.011 76.0954 126.079 84.3821C129.147 92.6688 138.352 96.9001 146.639 93.8321Z" fill="#FFA500"/>
<path d="M126.1 92.2516L167.412 133.556C170.795 136.941 170.795 142.447 167.411 145.831L145.595 167.647C142.204 171.038 136.71 171.038 133.319 167.647L92.2297 126.566C85.9805 120.318 75.85 120.319 69.6023 126.568C63.3547 132.817 63.3555 142.948 69.6047 149.195L110.693 190.275C126.58 206.163 152.335 206.163 168.223 190.274L190.039 168.459C205.919 152.579 205.919 126.82 190.044 110.932L148.726 69.6219C142.477 63.3743 132.346 63.3751 126.098 69.6243C119.851 75.8735 119.851 86.004 126.1 92.2516ZM653.453 706.746C620.761 718.849 583.68 711.085 558.584 685.995C523.474 650.885 523.474 593.944 558.586 558.832C593.705 523.713 650.639 523.713 685.759 558.832C710.954 584.027 718.669 621.313 706.358 654.093C703.251 662.366 707.438 671.59 715.711 674.697C723.984 677.804 733.208 673.616 736.315 665.344C753 620.915 742.54 570.359 708.386 536.205C660.77 488.588 583.575 488.588 535.959 536.205C488.35 583.813 488.35 661.016 535.959 708.624C569.975 742.632 620.254 753.159 664.563 736.756C672.85 733.688 677.081 724.483 674.013 716.196C670.945 707.909 661.741 703.678 653.454 706.746H653.453Z" fill="#FFA500"/>
<path d="M673.994 708.327L632.69 667.023C629.299 663.633 629.299 658.135 632.685 654.752L654.5 632.929C657.89 629.539 663.383 629.539 666.774 632.931L707.863 674.013C714.112 680.26 724.243 680.259 730.491 674.01C736.738 667.761 736.737 657.63 730.488 651.383L689.4 610.303C673.512 594.416 647.758 594.416 631.87 610.304L610.059 632.122C594.173 647.996 594.173 673.762 610.062 689.652L651.366 730.955C657.614 737.204 667.744 737.204 673.993 730.955C680.241 724.707 680.241 714.577 673.993 708.328L673.994 708.327ZM526.929 576.708L221.257 271.036C215.009 264.788 204.878 264.788 198.63 271.036C192.381 277.284 192.381 287.415 198.63 293.663L504.302 599.335C510.55 605.584 520.68 605.584 526.929 599.335C533.177 593.087 533.177 582.956 526.929 576.708ZM268.569 218.17L581.361 530.962C587.609 537.211 597.74 537.211 603.988 530.962C610.237 524.714 610.237 514.584 603.988 508.335L291.196 195.543C284.948 189.295 274.817 189.295 268.569 195.543C262.32 201.791 262.32 211.922 268.569 218.17ZM468.504 306.077L606.576 168.005C612.824 161.756 612.824 151.626 606.576 145.377C600.327 139.129 590.197 139.129 583.948 145.377L445.877 283.449C439.628 289.698 439.628 299.828 445.877 306.077C452.125 312.325 462.255 312.325 468.504 306.077ZM635.998 188.956L493.383 330.188C487.104 336.406 487.055 346.537 493.273 352.816C499.491 359.095 509.621 359.144 515.9 352.926L658.516 211.694C664.795 205.476 664.844 195.345 658.626 189.066C652.408 182.788 642.277 182.738 635.998 188.956Z" fill="#FFA500"/>
<path d="M738.845 102.348C740.967 104.47 742.45 107.147 743.123 110.073C743.796 112.998 743.633 116.054 742.652 118.891L720.62 182.587C719.827 184.877 718.526 186.957 716.813 188.671C715.099 190.384 713.019 191.686 710.73 192.478L647.026 214.518C644.188 215.5 641.132 215.663 638.206 214.99C635.28 214.316 632.603 212.833 630.48 210.71L588.823 169.046C586.701 166.923 585.219 164.246 584.546 161.321C583.872 158.396 584.036 155.34 585.017 152.503L607.049 88.807C607.841 86.5174 609.143 84.4375 610.856 82.7243C612.569 81.011 614.649 79.7093 616.938 78.9172L680.634 56.8773C683.472 55.8955 686.528 55.7319 689.454 56.4051C692.38 57.0783 695.057 58.5613 697.18 60.6844L738.844 102.348L738.845 102.348ZM681.635 90.393L634.751 106.616L618.534 153.502L646.029 181.002L692.92 164.779L709.137 117.895L681.636 90.393H681.635ZM352.6 515.838L163.096 705.342C157.239 711.199 150.204 711.956 147.679 709.434L89.4437 651.198C86.9258 648.678 87.6828 641.647 93.5437 635.782L282.676 446.658C288.924 440.409 288.924 430.279 282.677 424.03C276.429 417.782 266.298 417.782 260.049 424.03L70.9133 613.158C53.507 630.576 50.5984 657.593 66.8125 673.82L125.057 732.065C141.29 748.284 168.319 745.374 185.724 727.969L375.228 538.465C381.477 532.216 381.477 522.086 375.228 515.837C368.98 509.589 358.849 509.589 352.601 515.837L352.6 515.838Z" fill="#FFA500"/>
</svg>
