<svg width="678" height="713" viewBox="0 0 678 713" fill="none" xmlns="http://www.w3.org/2000/svg">
<path d="M444 213.125C443.168 210.628 441.576 208.454 439.446 206.907C437.317 205.36 434.757 204.519 432.125 204.5H370L350.875 145.5C350.053 142.999 348.462 140.821 346.33 139.278C344.198 137.734 341.632 136.903 339 136.903C336.368 136.903 333.802 137.734 331.67 139.278C329.538 140.821 327.947 142.999 327.125 145.5L308 204.5H245.875C243.243 204.519 240.683 205.36 238.554 206.907C236.424 208.454 234.832 210.628 234 213.125C233.169 215.646 233.17 218.367 234.003 220.888C234.835 223.408 236.456 225.595 238.625 227.125L288.75 263.625L269.625 322.625C268.799 325.134 268.79 327.841 269.598 330.356C270.407 332.872 271.992 335.066 274.125 336.625C276.282 338.15 278.858 338.969 281.5 338.969C284.142 338.969 286.718 338.15 288.875 336.625L339 300.125L389.125 336.625C391.3 338.116 393.863 338.941 396.5 339C399.143 338.979 401.717 338.15 403.875 336.625C406.008 335.066 407.593 332.872 408.401 330.356C409.21 327.841 409.201 325.134 408.375 322.625L389.25 263.625L439.375 227.125C441.544 225.595 443.165 223.408 443.997 220.888C444.83 218.367 444.831 215.646 444 213.125ZM367.25 248.75C365.103 250.299 363.501 252.487 362.67 255.001C361.84 257.515 361.824 260.226 362.625 262.75L372.75 293.75L346.375 274.5C344.226 272.955 341.646 272.125 339 272.125C336.354 272.125 333.774 272.955 331.625 274.5L305.25 293.75L315.375 262.75C316.176 260.226 316.16 257.515 315.33 255.001C314.499 252.487 312.896 250.299 310.75 248.75L284.375 229.5H317C319.64 229.515 322.216 228.687 324.352 227.135C326.489 225.584 328.073 223.39 328.875 220.875L339 189.875L349.125 220.875C349.927 223.39 351.511 225.584 353.648 227.135C355.784 228.687 358.36 229.515 361 229.5H393.625L367.25 248.75Z" fill="#FFA500"/>
<path d="M339 84.25C296.326 84.2382 255.297 100.712 224.48 130.231C193.663 159.751 175.441 200.033 173.618 242.669C171.795 285.304 186.513 326.995 214.697 359.037C242.882 391.079 282.356 410.994 324.875 414.625C329.625 415 334.25 415.25 339 415.25C343.25 415.25 347.625 415 351.875 414.625H353.125V414.5C395.628 410.87 435.086 390.961 463.26 358.931C491.434 326.901 506.145 285.225 504.322 242.606C502.5 199.987 484.283 159.72 453.478 130.212C422.672 100.704 381.658 84.2375 339 84.25ZM461.625 318.25C461.592 318.25 461.56 318.263 461.537 318.287C461.513 318.31 461.5 318.342 461.5 318.375C450.319 338.414 434.38 355.394 415.088 367.819C395.796 380.245 373.744 387.733 350.875 389.625L350.75 389.75H350.625C342.808 390.52 334.933 390.478 327.125 389.625C296.909 387.05 268.338 374.765 245.683 354.605C223.029 334.446 207.507 307.495 201.44 277.783C195.372 248.071 199.085 217.193 212.022 189.765C224.959 162.338 246.426 139.834 273.213 125.619C300.001 111.403 330.67 106.24 360.635 110.901C390.6 115.561 418.252 129.795 439.457 151.475C460.661 173.154 474.28 201.115 478.275 231.176C482.271 261.237 476.43 291.784 461.625 318.25Z" fill="#FFA500"/>
<path d="M675 615.125L628 542.25C594.375 490.375 560.792 438.417 527.25 386.375C529.875 385.375 532.875 384.25 535.875 383.25C542.65 381.893 549.088 379.206 554.817 375.344C560.546 371.481 565.451 366.521 569.25 360.75C571.374 354.224 572.191 347.343 571.655 340.501C571.119 333.66 569.24 326.99 566.125 320.875C563.187 314.478 561.612 307.539 561.5 300.5C564.596 294.483 568.893 289.166 574.125 284.875C579.689 280.661 584.365 275.388 587.884 269.36C591.402 263.332 593.693 256.667 594.625 249.75C593.707 242.846 591.421 236.195 587.901 230.185C584.381 224.175 579.698 218.928 574.125 214.75C568.912 210.391 564.62 205.037 561.5 199C561.612 191.961 563.187 185.022 566.125 178.625C569.237 172.531 571.116 165.883 571.652 159.062C572.188 152.24 571.372 145.38 569.25 138.875C565.44 133.113 560.532 128.16 554.804 124.299C549.077 120.438 542.645 117.745 535.875 116.375C529.143 114.672 522.813 111.656 517.25 107.5C514.484 101.139 512.956 94.3084 512.75 87.3749C512.938 80.486 511.765 73.6276 509.299 67.1927C506.832 60.7578 503.12 54.8728 498.375 49.8749C486.428 42.8414 472.183 40.8193 458.75 44.2499C451.947 45.6542 444.928 45.6542 438.125 44.2499C432.889 39.8638 428.595 34.4639 425.5 28.3749C422.657 21.996 418.574 16.2464 413.488 11.4608C408.402 6.67521 402.415 2.94925 395.875 0.499883C389.103 -0.082347 382.282 0.677946 375.804 2.73717C369.326 4.79639 363.318 8.11403 358.125 12.4999C352.447 16.8272 345.936 19.9339 339 21.6249C332.064 19.9339 325.553 16.8272 319.875 12.4999C314.701 8.12368 308.714 4.81116 302.258 2.75201C295.802 0.692869 289.002 -0.0724519 282.25 0.499883C275.683 2.92771 269.668 6.64456 264.559 11.4317C259.45 16.2188 255.35 21.9796 252.5 28.3749C249.401 34.426 245.155 39.8175 240 44.2499C233.154 45.6522 226.096 45.6522 219.25 44.2499C205.858 40.8177 191.651 42.8408 179.75 49.8749C174.952 54.8667 171.198 60.7656 168.709 67.2262C166.219 73.6868 165.043 80.5792 165.25 87.4999C165.122 94.4164 163.547 101.23 160.625 107.5C155.175 111.663 148.917 114.643 142.25 116.25C128.546 119.021 116.499 127.112 108.75 138.75C106.626 145.276 105.809 152.156 106.345 158.998C106.881 165.84 108.76 172.509 111.875 178.625C114.813 185.022 116.388 191.961 116.5 199C113.38 205.037 109.088 210.391 103.875 214.75C98.3025 218.928 93.6193 224.175 90.0993 230.185C86.5793 236.195 84.2933 242.846 83.375 249.75C84.307 256.667 86.5982 263.332 90.1164 269.36C93.6347 275.388 98.3106 280.661 103.875 284.875C109.107 289.166 113.404 294.483 116.5 300.5C116.388 307.539 114.813 314.478 111.875 320.875C108.763 326.969 106.884 333.617 106.348 340.438C105.812 347.26 106.628 354.12 108.75 360.625C112.529 366.413 117.429 371.387 123.162 375.251C128.894 379.115 135.342 381.793 142.125 383.125C145 384.25 148 385.25 150.75 386.375C117.125 438.375 83.5417 490.333 50 542.25L3 615.125C1.64429 617.167 0.931595 619.568 0.953876 622.019C0.976157 624.47 1.7324 626.858 3.125 628.875C4.48306 630.891 6.40384 632.464 8.6485 633.397C10.8932 634.331 13.3627 634.584 15.75 634.125L101.125 618.25L121.875 702.75C122.478 705.111 123.757 707.244 125.556 708.887C127.355 710.531 129.594 711.613 132 712C132.658 712.145 133.327 712.228 134 712.25C136.095 712.264 138.159 711.743 139.996 710.737C141.833 709.731 143.384 708.272 144.5 706.5L279.25 497.875C280.25 498.125 281.125 498.75 282.125 499C284.173 499.488 286.27 499.74 288.375 499.75C299.85 498.485 310.751 494.072 319.875 487C325.553 482.673 332.064 479.566 339 477.875C345.936 479.566 352.447 482.673 358.125 487C363.322 491.42 369.349 494.759 375.852 496.819C382.356 498.88 389.206 499.621 396 499C397 498.75 397.875 498.125 398.75 497.875L533.5 706.5C534.617 708.272 536.167 709.731 538.004 710.737C539.842 711.743 541.905 712.264 544 712.25C544.673 712.228 545.342 712.145 546 712C548.406 711.613 550.645 710.531 552.444 708.887C554.243 707.244 555.522 705.111 556.125 702.75L576.875 618.25L662.25 634.125C664.637 634.571 667.102 634.311 669.344 633.379C671.586 632.447 673.508 630.882 674.875 628.875C676.268 626.858 677.024 624.47 677.046 622.019C677.068 619.568 676.356 617.167 675 615.125ZM139.25 668.5L122.625 600.875C121.878 597.773 119.973 595.074 117.301 593.331C114.628 591.588 111.39 590.933 108.25 591.5L39.75 604.25L71 555.875C102.25 507.375 133.583 458.875 165 410.375C165.136 410.949 165.22 411.535 165.25 412.125C165.062 419.014 166.235 425.872 168.701 432.307C171.168 438.742 174.88 444.627 179.625 449.625C191.575 456.652 205.817 458.674 219.25 455.25C226.053 453.846 233.072 453.846 239.875 455.25C245.141 459.607 249.44 465.014 252.5 471.125C254.875 474.75 257.25 478.375 259.75 481.875L139.25 668.5ZM394 472.125C392.99 473.271 391.697 474.133 390.25 474.625C386.75 475.375 377.5 469.75 371.5 465.875C362.102 458.577 350.839 454.072 339 452.875C327.161 454.072 315.898 458.577 306.5 465.875C300.5 469.75 291.25 475.5 287.875 474.75C286.343 474.163 284.972 473.221 283.875 472C280.004 467.668 276.609 462.932 273.75 457.875C268.578 447.558 260.663 438.865 250.875 432.75C245.193 430.163 238.99 428.923 232.75 429.125C227.314 429.231 221.888 429.648 216.5 430.375C208.75 431.25 198.25 432.5 195.25 430.125C192.25 427.75 191 417.125 190.125 409.375C189.973 397.67 186.552 386.24 180.25 376.375C179.255 375.127 178.123 373.995 176.875 373C176.398 372.595 175.897 372.22 175.375 371.875L175.25 371.75H175.125C167.652 366.285 159.274 362.18 150.375 359.625C143 357 133 353.5 131.25 349.75C129.5 346.25 133 336.375 135.5 329.125C140.507 318.495 142.372 306.655 140.875 295C137.204 284.052 130.482 274.381 121.5 267.125C116 261.625 108.375 254 108.375 249.75C108.375 245.5 116 237.875 121.5 232.375C130.482 225.119 137.204 215.448 140.875 204.5C142.372 192.845 140.507 181.005 135.5 170.375C133 163.125 129.5 153.25 131.25 149.625C133 146 143.125 142.5 150.5 139.875C161.768 137.225 172.046 131.414 180.125 123.125C186.521 113.342 189.99 101.937 190.125 90.2499C191 82.4999 192.125 71.9999 195.25 69.4999C198.375 66.9999 208.75 68.2499 216.5 69.1249C227.955 71.5651 239.865 70.7422 250.875 66.7499C260.693 60.6705 268.616 51.9682 273.75 41.6249C277.875 34.8749 283.625 25.7499 287.75 24.8749C291.25 23.9999 300.5 29.8749 306.5 33.6249C315.898 40.9228 327.161 45.4279 339 46.6249C350.839 45.4279 362.102 40.9228 371.5 33.6249C377.5 29.8749 386.625 24.1249 390.25 24.8749C394.375 25.7499 400.125 34.8749 404.25 41.6249C409.384 51.9682 417.307 60.6705 427.125 66.7499C438.135 70.7422 450.045 71.5651 461.5 69.1249C469.25 68.2499 479.75 66.9999 482.75 69.3749C485.75 71.7499 487 82.3749 487.875 90.1249C488.027 101.83 491.448 113.26 497.75 123.125C505.949 131.414 516.293 137.257 527.625 140C535 142.5 545 146 546.75 149.75C548.5 153.25 545 163.125 542.5 170.375C537.493 181.005 535.628 192.845 537.125 204.5C540.796 215.448 547.518 225.119 556.5 232.375C562 237.875 569.625 245.5 569.625 249.75C569.625 254 562 261.625 556.5 267.125C547.518 274.381 540.796 284.052 537.125 295C535.628 306.655 537.493 318.495 542.5 329.125C545 336.375 548.5 346.25 546.75 349.875C545 353.5 534.875 357.125 527.625 359.625C518.265 362.182 509.481 366.51 501.75 372.375C500.364 373.614 499.069 374.951 497.875 376.375C491.479 386.158 488.01 397.563 487.875 409.25C487 417 485.875 427.5 482.75 430C479.625 432.5 469.25 431.25 461.5 430.375C450.05 427.872 438.122 428.696 427.125 432.75C417.337 438.865 409.423 447.558 404.25 457.875C401.361 462.983 397.924 467.761 394 472.125ZM569.75 591.5C566.61 590.933 563.372 591.588 560.699 593.331C558.027 595.074 556.122 597.773 555.375 600.875L538.75 668.5L418.25 481.875C420.75 478.375 423.125 474.75 425.5 471.125C428.563 465.051 432.814 459.653 438 455.25C444.846 453.848 451.904 453.848 458.75 455.25C472.142 458.682 486.349 456.659 498.25 449.625C503.037 444.651 506.784 438.773 509.274 432.334C511.763 425.895 512.945 419.025 512.75 412.125C512.772 411.534 512.856 410.948 513 410.375C544.375 458.875 575.708 507.375 607 555.875L638.25 604.25L569.75 591.5Z" fill="#FFA500"/>
</svg>
