<svg width="800" height="608" viewBox="0 0 800 608" fill="none" xmlns="http://www.w3.org/2000/svg">
<path d="M189.876 115.948L165.87 139.954C159.557 146.268 159.557 156.504 165.87 162.82C169.028 165.978 173.167 167.556 177.303 167.556C181.44 167.556 185.579 165.978 188.734 162.82L212.74 138.814C219.054 132.5 219.054 122.264 212.74 115.948C206.429 109.634 196.192 109.636 189.876 115.948Z" fill="#FFA500"/>
<path d="M108.712 197.115L93.9311 211.896C87.617 218.209 87.617 228.446 93.9311 234.76C97.0889 237.918 101.226 239.496 105.362 239.496C109.5 239.496 113.639 237.918 116.794 234.76L131.575 219.979C137.887 213.667 137.887 203.429 131.575 197.115C125.262 190.802 115.026 190.802 108.712 197.115Z" fill="#FFA500"/>
<path d="M795.264 192.179L607.861 4.77636C601.547 -1.53613 591.31 -1.53613 584.997 4.77636L509.005 80.7684C505.974 83.7996 504.269 87.9121 504.269 92.1996C504.269 96.4871 505.974 100.6 509.005 103.631L515.383 110.009L492.724 132.668C484.654 140.739 474.496 145.476 460.819 147.529L331.967 147.709C323.085 147.709 314.853 150.554 308.109 155.37L297.873 145.135L304.196 138.812C307.228 135.781 308.932 131.668 308.932 127.381C308.932 123.093 307.228 118.981 304.196 115.95L215.001 26.756C208.69 20.442 198.451 20.442 192.137 26.756L4.73593 214.157C1.70468 217.188 0 221.301 0 225.588C0 229.876 1.70468 233.988 4.73593 237.02L93.9311 326.215C97.0889 329.373 101.226 330.951 105.362 330.951C109.5 330.951 113.639 329.373 116.794 326.215L122.128 320.88L145.859 344.613C153.692 352.444 159.75 361.632 163.864 371.916L164.781 374.207C170.529 388.583 178.997 401.421 189.943 412.368L371.66 594.085C380.907 603.331 393.054 607.956 405.202 607.956C417.351 607.956 429.496 603.333 438.744 594.085C443.394 589.433 446.885 584.055 449.213 578.313C466.598 585.942 487.657 582.653 501.871 568.439C506.119 564.189 509.469 559.275 511.824 553.928C529.801 563.652 552.782 560.928 567.957 545.753C583.147 530.563 585.921 507.585 576.28 489.55C581.45 487.274 586.285 484.025 590.504 479.808C590.521 479.791 590.624 479.688 590.641 479.671C609.227 461.085 609.227 430.843 590.641 412.257L589.468 411.083L620.038 380.515C629.128 371.423 642.024 355.11 648.4 339.163L649.375 336.777C653.477 326.523 659.539 317.341 667.396 309.485L691.128 285.752L696.41 291.034C699.441 294.065 703.553 295.77 707.841 295.77C712.128 295.77 716.241 294.065 719.272 291.034L795.264 215.042C801.578 208.731 801.578 198.493 795.264 192.179ZM110.697 286.585C110.689 286.593 110.681 286.604 110.67 286.613L105.361 291.923L39.0312 225.588L203.57 61.0497L269.903 127.381L263.606 133.678C263.598 133.685 263.587 133.693 263.578 133.703L110.697 286.585ZM567.833 456.754C567.816 456.771 567.713 456.872 567.696 456.891C561.755 462.832 552.372 462.76 546.341 456.724C545.418 455.8 451.819 362.857 451.819 362.857C450.029 361.068 447.918 359.802 445.674 359.029C441.491 357.583 436.84 357.885 432.868 359.973C431.46 360.713 430.137 361.674 428.954 362.857C425.404 366.408 423.849 371.201 424.293 375.84C424.343 376.355 424.416 376.868 424.515 377.377C424.712 378.396 425.009 379.399 425.402 380.372C426.191 382.319 427.374 384.143 428.952 385.721C428.952 385.721 546.116 502.761 546.793 503.255C550.986 509.236 550.429 517.557 545.09 522.893C539.202 528.782 529.621 528.782 523.735 522.893L398.554 398.368C397.371 397.185 396.048 396.222 394.64 395.482C388.54 392.276 380.818 393.238 375.688 398.368C371.874 402.182 370.382 407.422 371.174 412.368C371.693 415.613 373.187 418.73 375.688 421.23L481.335 526.875C484.858 532.735 484.087 540.491 479.004 545.574C476.151 548.427 472.358 549.997 468.326 549.997C464.293 549.997 460.501 548.425 457.649 545.574L341.346 429.927C335.032 423.615 324.796 423.615 318.481 429.927C318.087 430.322 317.717 430.732 317.371 431.155C312.192 437.505 312.562 446.872 318.481 452.791L418.212 552.521C421.735 558.38 420.962 566.136 415.879 571.219C409.991 577.106 400.41 577.105 394.524 571.219L212.807 389.501C204.975 381.668 198.917 372.482 194.804 362.198L193.887 359.905C188.137 345.53 179.672 332.693 168.725 321.746L144.993 298.013L275.01 167.998L291.053 184.039C290.862 185.624 290.751 187.234 290.745 188.87C290.745 189.009 290.745 189.149 290.748 189.29C291.518 222.659 318.998 249.807 352.079 249.807L382.33 249.674L567.779 435.124C573.757 441.102 573.757 450.83 567.833 456.754ZM644.53 286.635C633.561 297.604 625.091 310.448 619.399 324.684L618.424 327.09C614.752 336.269 606.014 348.894 597.174 357.735L566.68 388.299L480.762 302.38C510.644 301.693 527.686 293.223 528.69 292.71L513.963 263.924L514.122 263.843C513.869 263.965 488.868 275.674 445.093 266.71L400.454 222.071L400.309 222.134C397.302 219.265 393.302 217.949 389.132 217.949C389.109 217.949 389.085 217.949 389.063 217.949L352.013 217.795C336.504 217.795 323.579 204.634 323.087 188.796C323.196 184.035 327.226 180.046 331.992 180.046L462.012 179.865C462.746 179.865 463.48 179.814 464.205 179.714C485.455 176.773 502.263 168.864 515.59 155.537L538.25 132.879L668.267 262.899L644.53 286.635ZM707.841 256.74L702.567 251.466C702.564 251.463 702.563 251.462 702.56 251.459L549.68 98.5793C549.677 98.5762 549.675 98.5746 549.672 98.5715L543.302 92.2012L596.43 39.0732L760.967 203.61L707.841 256.74Z" fill="#FFA500"/>
</svg>
