<svg width="800" height="800" viewBox="0 0 800 800" fill="none" xmlns="http://www.w3.org/2000/svg">
<g clip-path="url(#clip0_6_27)">
<path d="M330.009 672.884C329.933 672.862 329.856 672.842 329.78 672.822L283.202 660.725C279.253 659.564 276.134 657.519 275.461 656.451L275.43 631.116C275.469 631.069 275.509 631.026 275.548 630.981C291.519 611.894 300.314 587.161 300.314 561.341V542.472C316.247 490.567 305.019 445.566 299.256 432.469C299.237 432.425 299.212 432.384 299.192 432.341C299.081 432.097 298.959 431.861 298.834 431.626C298.761 431.489 298.691 431.348 298.614 431.214C298.494 431.008 298.362 430.811 298.231 430.612C298.13 430.459 298.033 430.303 297.925 430.156C297.811 430 297.687 429.851 297.566 429.7C297.427 429.526 297.291 429.35 297.144 429.186C297.042 429.072 296.931 428.966 296.825 428.855C296.648 428.672 296.473 428.487 296.287 428.316C296.187 428.223 296.081 428.141 295.98 428.053C295.778 427.88 295.578 427.705 295.367 427.545C295.252 427.458 295.13 427.38 295.011 427.295C294.805 427.151 294.602 427.005 294.387 426.872C294.237 426.778 294.08 426.698 293.927 426.611C293.737 426.505 293.55 426.395 293.355 426.298C293.162 426.203 292.966 426.123 292.769 426.037C292.602 425.966 292.436 425.887 292.266 425.823C292.05 425.741 291.83 425.673 291.609 425.603C291.447 425.551 291.287 425.494 291.123 425.448C290.911 425.389 290.692 425.345 290.475 425.298C290.294 425.259 290.114 425.214 289.931 425.183C289.741 425.15 289.547 425.131 289.355 425.106C289.136 425.078 288.917 425.05 288.695 425.034C288.536 425.023 288.373 425.023 288.212 425.017C287.953 425.009 287.695 425.002 287.434 425.009C287.295 425.014 287.156 425.027 287.016 425.036C286.736 425.055 286.458 425.075 286.178 425.112C286.133 425.117 286.089 425.117 286.045 425.123C274 426.848 259.305 423.328 243.748 419.603C216.233 413.014 185.195 405.6 158.006 425.203C131.716 427.462 113.073 449.556 113.073 479.419C113.073 501.134 123.15 539.92 125.459 548.526V558.966C125.459 585.917 134.786 610.83 149.737 629.412L149.703 656.476C149.031 657.545 145.911 659.589 141.962 660.752L95.3859 672.848C95.3094 672.869 95.2328 672.889 95.1562 672.911C65.5125 681.217 50 710.283 50 734.7V748.2C50 762.978 62.9328 775 78.8312 775L212.294 774.986C212.391 774.987 212.486 775 212.584 775C212.683 775 212.778 774.987 212.877 774.986L346.341 774.97C362.237 774.97 375.17 762.948 375.17 748.172V734.672C375.167 710.255 359.656 681.189 330.009 672.884ZM212.636 697.955L169.287 671.945C172.592 667.764 174.705 662.684 174.705 656.662L174.711 651.292C186.273 658.108 199.194 661.98 212.72 661.98C225.998 661.98 238.812 658.542 250.455 652.036L250.461 656.619C250.461 662.817 252.695 668.014 256.164 672.264L212.636 697.955ZM150.462 554.698C150.462 542.273 155.72 524.105 159.65 512.611C216.286 513.911 259.02 527.512 275.316 533.544V540.481C275.316 540.519 275.316 540.558 275.316 540.595V561.337C275.316 583.375 267.027 603.566 254.098 617.536C254.069 617.566 254.042 617.595 254.014 617.625C242.9 629.594 228.375 636.978 212.722 636.978C179.555 636.978 150.462 600.523 150.462 558.966V554.698ZM162.487 450C162.575 450 162.659 449.989 162.747 449.987C163.069 449.981 163.389 449.97 163.709 449.939C163.867 449.923 164.02 449.895 164.177 449.873C164.425 449.841 164.675 449.808 164.922 449.759C165.105 449.723 165.281 449.673 165.461 449.63C165.677 449.576 165.894 449.528 166.108 449.464C166.3 449.406 166.484 449.334 166.672 449.269C166.867 449.2 167.064 449.134 167.256 449.055C167.455 448.973 167.647 448.876 167.839 448.786C168.014 448.703 168.189 448.625 168.361 448.534C168.575 448.42 168.78 448.292 168.984 448.166C169.127 448.078 169.273 447.998 169.412 447.905C169.664 447.737 169.905 447.551 170.144 447.367C170.227 447.303 170.312 447.248 170.394 447.183C188.786 432.155 212.655 437.869 237.925 443.919C251.528 447.175 265.495 450.512 279.058 450.562C282.317 462.605 285.522 483.944 282.08 509.361C261.739 501.948 214.002 487.5 150.948 487.5C150.917 487.5 150.889 487.505 150.858 487.505C150.567 487.506 150.28 487.526 149.992 487.548C149.858 487.559 149.722 487.562 149.589 487.578C149.352 487.605 149.117 487.645 148.883 487.686C148.703 487.717 148.52 487.741 148.342 487.778C148.18 487.812 148.022 487.861 147.861 487.903C147.62 487.964 147.378 488.022 147.144 488.097C147.053 488.126 146.967 488.162 146.878 488.195C146.584 488.297 146.292 488.4 146.008 488.522C145.948 488.547 145.894 488.58 145.834 488.605C145.53 488.742 145.228 488.884 144.936 489.045C144.827 489.105 144.725 489.175 144.617 489.239C144.384 489.376 144.15 489.511 143.927 489.662C143.717 489.805 143.519 489.962 143.317 490.119C143.206 490.205 143.089 490.283 142.981 490.372C142.731 490.578 142.494 490.801 142.259 491.026C142.208 491.078 142.15 491.123 142.098 491.175C141.884 491.389 141.683 491.62 141.483 491.851C141.417 491.926 141.347 491.997 141.284 492.075C141.13 492.264 140.987 492.466 140.842 492.666C140.744 492.8 140.641 492.931 140.548 493.07C140.447 493.222 140.358 493.384 140.262 493.541C140.139 493.744 140.014 493.944 139.903 494.155C139.839 494.275 139.784 494.403 139.725 494.525C139.642 494.694 139.556 494.859 139.481 495.033C138.617 489.139 138.075 483.72 138.075 479.423C138.077 465.848 144.469 450 162.487 450ZM78.8297 750C76.2766 750 75 748.545 75 748.201V734.702C75 719.736 84.2047 702.006 101.797 697.017L144.148 686.019L200.083 719.58V749.989L78.8297 750ZM350.167 748.172C350.167 748.516 348.891 749.97 346.336 749.97L225.083 749.984V719.637L281.769 686.181L323.37 696.986C340.962 701.975 350.166 719.705 350.166 734.67L350.167 748.172Z" fill="#FFA500"/>
<path d="M705.009 672.884C704.933 672.863 704.856 672.842 704.78 672.822L658.202 660.725C654.253 659.564 651.134 657.519 650.461 656.452L650.43 631.116C650.469 631.069 650.509 631.027 650.548 630.981C666.519 611.894 675.314 587.161 675.314 561.341V542.472C691.247 490.567 680.019 445.566 674.256 432.469C674.237 432.425 674.213 432.386 674.194 432.344C674.081 432.097 673.958 431.856 673.83 431.619C673.758 431.486 673.691 431.35 673.616 431.22C673.492 431.009 673.359 430.806 673.225 430.603C673.127 430.455 673.031 430.305 672.928 430.161C672.811 430 672.684 429.847 672.559 429.692C672.423 429.524 672.291 429.352 672.147 429.191C672.041 429.072 671.928 428.963 671.819 428.849C671.645 428.669 671.473 428.488 671.291 428.319C671.189 428.224 671.08 428.139 670.975 428.049C670.777 427.878 670.578 427.706 670.369 427.549C670.252 427.46 670.128 427.381 670.008 427.295C669.803 427.152 669.6 427.006 669.387 426.875C669.237 426.781 669.08 426.702 668.925 426.614C668.736 426.508 668.548 426.399 668.353 426.302C668.163 426.206 667.967 426.127 667.772 426.042C667.603 425.969 667.436 425.891 667.264 425.825C667.052 425.744 666.831 425.677 666.614 425.608C666.45 425.555 666.289 425.497 666.122 425.452C665.911 425.394 665.694 425.35 665.478 425.303C665.295 425.263 665.114 425.219 664.928 425.186C664.739 425.153 664.547 425.135 664.355 425.111C664.134 425.083 663.916 425.053 663.692 425.038C663.533 425.027 663.372 425.027 663.211 425.02C662.952 425.013 662.694 425.005 662.433 425.013C662.294 425.017 662.153 425.03 662.014 425.039C661.736 425.058 661.456 425.078 661.178 425.116C661.133 425.122 661.089 425.122 661.045 425.128C649.002 426.853 634.305 423.333 618.748 419.608C591.233 413.019 560.195 405.605 533.006 425.208C506.716 427.467 488.073 449.561 488.073 479.424C488.073 501.139 498.15 539.925 500.459 548.531V558.97C500.459 585.922 509.786 610.834 524.738 629.417L524.703 656.481C524.031 657.55 520.911 659.594 516.962 660.756L470.386 672.853C470.309 672.874 470.233 672.894 470.156 672.916C440.512 681.217 425 710.283 425 734.7V748.2C425 762.977 437.933 774.999 453.831 774.999L587.294 774.984C587.391 774.986 587.486 774.999 587.584 774.999C587.683 774.999 587.778 774.986 587.877 774.984L721.341 774.969C737.237 774.969 750.17 762.947 750.17 748.17V734.67C750.167 710.255 734.656 681.189 705.009 672.884ZM587.636 697.955L544.287 671.945C547.592 667.764 549.705 662.685 549.705 656.663L549.711 651.292C561.273 658.108 574.194 661.98 587.72 661.98C600.998 661.98 613.812 658.542 625.455 652.036L625.461 656.619C625.461 662.817 627.695 668.014 631.164 672.264L587.636 697.955ZM525.462 554.699C525.462 542.274 530.72 524.105 534.65 512.611C591.286 513.911 634.02 527.513 650.316 533.544V540.481C650.316 540.519 650.316 540.558 650.316 540.595V561.338C650.316 583.375 642.027 603.566 629.098 617.536C629.069 617.566 629.042 617.595 629.014 617.625C617.9 629.594 603.375 636.978 587.722 636.978C554.555 636.978 525.462 600.524 525.462 558.966V554.699ZM537.488 450C537.573 450 537.658 449.989 537.744 449.988C538.066 449.981 538.388 449.97 538.708 449.939C538.864 449.924 539.017 449.895 539.172 449.874C539.422 449.841 539.673 449.808 539.922 449.759C540.103 449.724 540.278 449.675 540.455 449.631C540.673 449.578 540.892 449.528 541.108 449.464C541.297 449.406 541.481 449.336 541.666 449.27C541.864 449.2 542.063 449.135 542.258 449.053C542.455 448.972 542.642 448.877 542.834 448.786C543.011 448.702 543.189 448.624 543.364 448.531C543.575 448.419 543.777 448.292 543.98 448.167C544.125 448.078 544.273 447.997 544.416 447.903C544.667 447.736 544.905 447.552 545.144 447.367C545.227 447.302 545.314 447.247 545.397 447.181C563.789 432.153 587.658 437.867 612.928 443.917C626.531 447.174 640.498 450.511 654.061 450.561C657.32 462.603 660.525 483.942 657.083 509.359C636.737 501.949 589 487.5 525.948 487.5C525.917 487.5 525.889 487.505 525.858 487.505C525.567 487.506 525.28 487.527 524.992 487.549C524.858 487.559 524.722 487.563 524.589 487.578C524.352 487.605 524.117 487.645 523.883 487.686C523.703 487.717 523.52 487.741 523.342 487.778C523.18 487.813 523.022 487.861 522.861 487.903C522.62 487.964 522.378 488.022 522.144 488.097C522.053 488.127 521.967 488.163 521.878 488.195C521.584 488.297 521.291 488.4 521.008 488.522C520.948 488.547 520.892 488.58 520.834 488.605C520.53 488.742 520.228 488.885 519.936 489.045C519.827 489.105 519.725 489.175 519.617 489.239C519.384 489.377 519.15 489.511 518.927 489.663C518.717 489.805 518.519 489.963 518.317 490.119C518.206 490.205 518.089 490.283 517.981 490.372C517.731 490.578 517.494 490.802 517.259 491.027C517.208 491.078 517.15 491.124 517.098 491.175C516.884 491.389 516.683 491.62 516.484 491.852C516.419 491.927 516.348 491.997 516.286 492.075C516.131 492.264 515.989 492.466 515.844 492.666C515.745 492.8 515.642 492.931 515.55 493.07C515.448 493.222 515.359 493.384 515.264 493.541C515.141 493.744 515.016 493.944 514.905 494.155C514.841 494.275 514.786 494.403 514.727 494.525C514.644 494.694 514.558 494.86 514.483 495.033C513.619 489.139 513.077 483.72 513.077 479.424C513.077 465.849 519.469 450 537.488 450ZM453.83 750C451.277 750 450 748.545 450 748.202V734.702C450 719.736 459.205 702.006 476.797 697.017L519.148 686.019L575.083 719.58V749.989L453.83 750ZM725.167 748.172C725.167 748.516 723.891 749.97 721.336 749.97L600.083 749.984V719.638L656.769 686.181L698.372 696.986C715.964 701.975 725.167 719.705 725.167 734.67V748.172Z" fill="#FFA500"/>
<path d="M737.5 75H487.5C480.597 75 475 80.5969 475 87.5C475 94.4031 480.597 100 487.5 100H737.5C758.178 100 775 116.823 775 137.5V312.5C775 333.177 758.178 350 737.5 350H475C468.097 350 462.5 355.597 462.5 362.5V394.823L421.339 353.662C416.458 348.78 408.544 348.78 403.662 353.662C398.78 358.544 398.78 366.458 403.662 371.339L466.162 433.839C468.553 436.231 471.75 437.5 475.005 437.5C476.614 437.5 478.239 437.189 479.786 436.548C484.456 434.614 487.502 430.055 487.502 425V375H737.502C771.964 375 800.002 346.962 800.002 312.5V137.5C800 103.038 771.962 75 737.5 75Z" fill="#FFA500"/>
<path d="M450 262.5V87.5C450 53.0375 421.962 25 387.5 25H62.5C28.0375 25 0 53.0375 0 87.5V262.5C0 296.962 28.0375 325 62.5 325H237.5V375C237.5 380.055 240.545 384.614 245.216 386.548C246.763 387.189 248.386 387.5 249.997 387.5C253.25 387.5 256.447 386.23 258.839 383.839L317.677 325H387.5C421.962 325 450 296.962 450 262.5ZM425 262.5C425 283.177 408.177 300 387.5 300H312.5C309.184 300 306.005 301.317 303.661 303.661L262.5 344.823V312.5C262.5 305.597 256.903 300 250 300H62.5C41.8234 300 25 283.177 25 262.5V87.5C25 66.8234 41.8234 50 62.5 50H387.5C408.177 50 425 66.8234 425 87.5V262.5Z" fill="#FFA500"/>
<path d="M75 112.5H112.5C119.403 112.5 125 106.903 125 100C125 93.0969 119.403 87.5 112.5 87.5H75C68.0969 87.5 62.5 93.0969 62.5 100C62.5 106.903 68.0969 112.5 75 112.5Z" fill="#FFA500"/>
<path d="M375 87.5H162.5C155.597 87.5 150 93.0969 150 100C150 106.903 155.597 112.5 162.5 112.5H375C381.903 112.5 387.5 106.903 387.5 100C387.5 93.0969 381.903 87.5 375 87.5Z" fill="#FFA500"/>
<path d="M375 137.5H75C68.0969 137.5 62.5 143.097 62.5 150C62.5 156.903 68.0969 162.5 75 162.5H375C381.903 162.5 387.5 156.903 387.5 150C387.5 143.097 381.903 137.5 375 137.5Z" fill="#FFA500"/>
<path d="M375 187.5H337.5C330.597 187.5 325 193.097 325 200C325 206.903 330.597 212.5 337.5 212.5H375C381.903 212.5 387.5 206.903 387.5 200C387.5 193.097 381.903 187.5 375 187.5Z" fill="#FFA500"/>
<path d="M75 212.5H287.5C294.403 212.5 300 206.903 300 200C300 193.097 294.403 187.5 287.5 187.5H75C68.0969 187.5 62.5 193.097 62.5 200C62.5 206.903 68.0969 212.5 75 212.5Z" fill="#FFA500"/>
<path d="M375 237.5H75C68.0969 237.5 62.5 243.097 62.5 250C62.5 256.903 68.0969 262.5 75 262.5H375C381.903 262.5 387.5 256.903 387.5 250C387.5 243.097 381.903 237.5 375 237.5Z" fill="#FFA500"/>
<path d="M487.5 162.5H525C531.903 162.5 537.5 156.903 537.5 150C537.5 143.097 531.903 137.5 525 137.5H487.5C480.597 137.5 475 143.097 475 150C475 156.903 480.597 162.5 487.5 162.5Z" fill="#FFA500"/>
<path d="M725 162.5C731.903 162.5 737.5 156.903 737.5 150C737.5 143.097 731.903 137.5 725 137.5H575C568.097 137.5 562.5 143.097 562.5 150C562.5 156.903 568.097 162.5 575 162.5H725Z" fill="#FFA500"/>
<path d="M487.5 212.5H725C731.903 212.5 737.5 206.903 737.5 200C737.5 193.097 731.903 187.5 725 187.5H487.5C480.597 187.5 475 193.097 475 200C475 206.903 480.597 212.5 487.5 212.5Z" fill="#FFA500"/>
<path d="M725 237.5H687.5C680.597 237.5 675 243.097 675 250C675 256.903 680.597 262.5 687.5 262.5H725C731.903 262.5 737.5 256.903 737.5 250C737.5 243.097 731.903 237.5 725 237.5Z" fill="#FFA500"/>
<path d="M487.5 262.5H637.5C644.403 262.5 650 256.903 650 250C650 243.097 644.403 237.5 637.5 237.5H487.5C480.597 237.5 475 243.097 475 250C475 256.903 480.597 262.5 487.5 262.5Z" fill="#FFA500"/>
<path d="M487.5 312.5H725C731.903 312.5 737.5 306.903 737.5 300C737.5 293.097 731.903 287.5 725 287.5H487.5C480.597 287.5 475 293.097 475 300C475 306.903 480.597 312.5 487.5 312.5Z" fill="#FFA500"/>
</g>
<defs>
<clipPath id="clip0_6_27">
<rect width="800" height="800" fill="white"/>
</clipPath>
</defs>
</svg>
